
    <svg width="48" height="48" viewBox="0 0 48 48" fill="none" xmlns="http://www.w3.org/2000/svg">
    <circle cx="24" cy="24" r="22" fill="#FFC0CB"/>
    <path d="M24.5969 12.3401C23.0577 11.8324 21.4299 12.0469 20.0281 12.9309C18.6263 13.8149 17.5404 15.3059 17.0003 17.0001C16.8582 17.4716 16.7668 17.955 16.7298 18.4441C16.6928 18.9332 16.7109 19.4252 16.7833 19.9091C16.308 20.2448 15.9047 20.6899 15.6036 21.2139C15.3025 21.7379 15.1119 22.3273 15.0433 22.9371C14.9746 23.5469 15.0301 24.1646 15.2067 24.7521C15.3832 25.3396 15.6773 25.8859 16.0669 26.3541C16.0669 28.2101 16.783 30.0021 18.0649 31.3151C19.3469 32.6281 21.0988 33.3591 22.9997 33.3591C23.9603 33.3591 24.9049 33.1673 25.7769 32.7951C26.1366 33.4381 26.6461 33.9954 27.2623 34.4214C27.8785 34.8473 28.5836 35.1306 29.3121 35.2472C30.0407 35.3638 30.7794 35.3104 31.4751 35.0915C32.1708 34.8726 32.8057 34.4943 33.3337 33.9871C33.0541 33.7299 32.8046 33.4442 32.5897 33.1341C32.6542 32.5891 32.6475 32.0371 32.5697 31.4961C33.5008 30.7862 34.167 29.7793 34.4447 28.6411C34.7223 27.5029 34.6003 26.3039 34.0997 25.2411C34.1776 24.3718 34.0096 23.5023 33.6169 22.7251C32.7331 22.8293 31.8577 22.6275 31.1217 22.1481C30.3857 21.6687 29.8322 20.9418 29.5469 20.0911C29.4492 19.6204 29.4249 19.1346 29.4753 18.6551C29.5257 18.1756 29.6498 17.7107 29.8419 17.2791C30.3145 16.0145 30.2942 14.6152 29.7863 13.3449C29.2784 12.0745 28.3148 11.0068 27.0619 10.3231C26.5036 10.8062 25.8392 11.1545 25.1181 11.3406C24.3971 11.5266 23.6421 11.5451 22.9172 11.3947C22.8318 11.6166 22.7263 11.8278 22.5997 12.0251L24.5969 12.3401Z" fill="#FF69B4"/>
    <path d="M20 23C20 23.7956 19.6839 24.5587 19.1213 25.1213C18.5587 25.6839 17.7956 26 17 26C16.2044 26 15.4413 25.6839 14.8787 25.1213C14.3161 24.5587 14 23.7956 14 23C14 22.2044 14.3161 21.4413 14.8787 20.8787C15.4413 20.3161 16.2044 20 17 20C17.7956 20 18.5587 20.3161 19.1213 20.8787C19.6839 21.4413 20 22.2044 20 23Z" fill="white"/>
    <path d="M30 23C30 23.7956 29.6839 24.5587 29.1213 25.1213C28.5587 25.6839 27.7956 26 27 26C26.2044 26 25.4413 25.6839 24.8787 25.1213C24.3161 24.5587 24 23.7956 24 23C24 22.2044 24.3161 21.4413 24.8787 20.8787C25.4413 20.3161 26.2044 20 27 20C27.7956 20 28.5587 20.3161 29.1213 20.8787C29.6839 21.4413 30 22.2044 30 23Z" fill="white"/>
    </svg>
  